Coordinates
version=1
nRows=14
nColumns=36
inDegrees=yes

Units are S.I. units (second, meters, Newtons, ...)
If the header above contains a line with 'inDegrees', this indicates whether rotational values are in degrees (yes) or radians (no).

endheader
time	pelvis_tilt	pelvis_list	pelvis_rotation	pelvis_tx	pelvis_ty	pelvis_tz	hip_flexion_r	hip_adduction_r	hip_rotation_r	knee_angle_r	knee_angle_r_beta	ankle_angle_r	subtalar_angle_r	mtp_angle_r	hip_flexion_l	hip_adduction_l	hip_rotation_l	knee_angle_l	knee_angle_l_beta	ankle_angle_l	subtalar_angle_l	mtp_angle_l	lumbar_extension	lumbar_bending	lumbar_rotation	arm_flex_r	arm_add_r	arm_rot_r	elbow_flex_r	pro_sup_r	arm_flex_l	arm_add_l	arm_rot_l	elbow_flex_l	pro_sup_l
      0.00000000	     -8.92371994	     -1.57686731	      2.50465072	     -0.08612758	      1.24633509	     -0.02840027	      8.96145204	     -0.06255910	      4.16232531	      5.63477228	      0.09834533	      0.73967898	    -14.95833251	     -7.42083580	      9.21581649	     -2.68374412	      2.02242576	      6.46392367	      0.11281675	      8.20873105	     -7.92827508	     -7.42083580	      5.14038312	      1.32123230	     -2.78796942	     29.48674213	     -0.68245612	     54.62228892	    120.48988523	     83.32359363	     38.87237829	      2.36253232	     74.11654076	    120.60108367	     87.87046343
      0.01666670	     -8.24288995	     -1.56005879	      1.89994171	     -0.08360528	      1.24574357	     -0.02906578	      7.48294736	     -0.20866670	      4.33529034	      3.52192359	      0.06146916	      2.55798399	    -13.13930644	     -7.44245146	      6.98697539	     -2.70071818	      2.06226221	      4.13748598	      0.07221275	      7.08467140	     -8.56504951	     -7.44245146	      3.13563171	      2.07747664	     -0.64444923	     33.04533030	     -2.84751532	     64.19289027	    124.95048985	     98.50722264	     41.50939490	      2.71534452	     73.33391518	    124.59250130	    104.58263926
      0.03333330	     -7.46425841	     -1.57928697	      2.65338190	     -0.07524318	      1.24986683	     -0.03234766	      6.24386592	     -0.28811909	      4.56773531	      2.94052725	      0.05132188	      3.74242561	    -12.39074441	     -7.45269801	      5.16697091	     -2.64255211	      2.89274974	      2.61919172	      0.04571352	      6.37235759	     -8.57967512	     -7.45269801	      2.64926177	      1.90575544	     -1.27868002	     31.83215673	     -1.46479655	     63.26449737	    126.12698822	    102.79467339	     41.77675889	      2.53878209	     73.15487981	    124.59512376	    109.44405648
      0.05000000	     -6.65356761	     -1.68251717	      2.82667138	     -0.07472025	      1.24985146	     -0.03325315	      4.69302253	     -0.27990068	      3.79654325	      2.21329418	      0.03862927	      3.59251966	    -12.29155034	     -7.45907408	      4.22087699	     -2.68367427	      2.62085168	      2.55870938	      0.04465790	      7.22207483	     -8.24723443	     -7.45907408	      1.96914121	      2.04099407	     -1.62552501	     31.31425618	     -0.41744932	     63.28742560	    125.87061423	    104.52998547	     41.99821063	      2.68088997	     72.81995394	    124.70736882	    110.45614598
      0.06666670	     -6.55181158	     -1.74659304	      3.36784291	     -0.07733668	      1.25042748	     -0.03363091	      4.73801191	     -0.19124792	      3.31329666	      2.79785111	      0.04883171	      3.94719064	    -12.41598354	     -7.46860576	      4.46085790	     -2.64853308	      3.05095125	      2.89500959	      0.05052745	      7.55164156	     -8.45087215	     -7.46860576	      1.83616406	      2.08851151	     -1.99343238	     30.76566318	      0.22960804	     63.55044196	    125.39789886	    104.00631174	     42.22438908	      2.81621453	     72.76593792	    124.67233448	    109.92018131
      0.08333330	     -7.02317390	     -1.71512681	      3.28120269	     -0.08703679	      1.24890774	     -0.03108774	      6.04855669	     -0.20968590	      3.06629882	      3.93044267	      0.06859917	      4.44797209	    -12.26920858	     -7.46956731	      5.27099951	     -2.57491215	      2.99857975	      3.41393281	      0.05958437	      8.17728824	     -7.96650649	     -7.46956731	      1.89301357	      2.11759205	     -2.16650080	     30.66636900	      1.21326009	     62.95023025	    123.96760763	    104.14010603	     42.99126855	      2.62051039	     72.52476574	    124.91684473	    109.80460713
      0.10000000	     -7.25079034	     -1.75355179	      3.30103238	     -0.08976458	      1.24923823	     -0.03079110	      6.61965601	     -0.15178531	      2.65296571	      4.38301810	      0.07649810	      4.30794468	    -12.27280115	     -7.47381765	      6.03034382	     -2.67358760	      2.44424218	      4.33154500	      0.07559972	      8.56393668	     -7.79988177	     -7.47381765	      1.73751349	      2.01908933	     -2.53852104	     31.06547397	      1.75164479	     62.72082999	    122.98974433	    103.41160223	     43.86576347	      2.24537509	     72.10559027	    124.96664664	    108.67074385
      0.11666670	     -7.21489522	     -1.78572992	      3.32348249	     -0.07667735	      1.24944300	     -0.03371243	      6.66818823	     -0.15133601	      2.53171698	      4.71211416	      0.08224191	      4.31329024	    -12.34866414	     -7.47292060	      5.96362473	     -2.69808157	      2.14148576	      4.67539065	      0.08160096	      8.47383836	     -7.94091631	     -7.47292060	      1.79502908	      2.14449888	     -2.22247536	     30.66589235	      1.82001207	     61.93785788	    122.25215342	    102.12338027	     43.56262666	      2.61659786	     72.24712624	    124.92417966	    107.54529485
      0.13333330	     -7.34870294	     -1.84211505	      3.31642236	     -0.07885706	      1.24622471	     -0.03362425	      6.70767100	     -0.07882611	      2.36326179	      4.68491984	      0.08176728	      4.11717936	    -12.35579178	     -7.47343325	      6.22927864	     -2.78108315	      1.81998886	      4.98401994	      0.08698756	      8.54886152	     -7.73634619	     -7.47343325	      2.10707935	      2.26880524	     -1.94322423	     30.45573561	      1.75254344	     61.39166396	    121.59688397	    102.07607318	     43.38591370	      3.11306478	     72.26603507	    124.85019917	    107.45990068
      0.15000000	     -7.71742714	     -1.94248029	      3.33924118	     -0.08772695	      1.24842931	     -0.03096803	      7.18952219	      0.05589749	      2.21872407	      4.92846245	      0.08601790	      4.01593965	    -12.72974613	     -7.47423108	      6.89832727	     -2.91512165	      1.57992892	      5.38348559	      0.09395955	      8.98232432	     -7.32214656	     -7.47423108	      2.29425230	      2.24948929	     -2.06322606	     30.66829344	      1.89243327	     61.40957989	    121.37925056	    102.03415494	     43.87659278	      2.99274756	     72.41992313	    124.66151532	    107.35559848
      0.16666670	     -8.33439859	     -2.06525822	      3.43102528	     -0.08931797	      1.24779544	     -0.03070130	      8.33736983	      0.21847500	      2.16561800	      5.90428933	      0.10304929	      4.03250587	    -13.21606018	     -7.48878737	      8.08723954	     -3.03318623	      1.39815825	      6.12074482	      0.10682715	      9.23406181	     -7.11849989	     -7.48878737	      2.72821299	      2.30239565	     -2.48964344	     30.61572752	      2.17302294	     61.55092648	    121.38202896	    100.76577495	     44.06861007	      2.57852622	     72.50648406	    124.78567083	    106.75391167
      0.18333330	     -9.12432586	     -2.14892642	      3.37381454	     -0.08652399	      1.24652123	     -0.03095904	      9.18016183	      0.27330775	      1.81715266	      6.04970136	      0.10558721	      4.17293778	    -12.72168850	     -7.48966223	      9.13811408	     -3.12269892	      0.90167930	      6.47188641	      0.11295573	      9.23460749	     -6.62574498	     -7.48966223	      3.90173272	      2.34843035	     -2.56453091	     30.06897393	      2.25651991	     61.32166414	    121.22386036	     98.96238569	     43.40286123	      2.48200247	     72.43423952	    124.34747606	    104.92940505
      0.20000000	     -9.11613056	     -2.17882851	      3.51356972	     -0.07734842	      1.24720004	     -0.03341670	      9.00992198	      0.31122463	      1.69200514	      5.91025652	      0.10315344	      4.19534620	    -13.05812203	     -7.48972069	      8.98426044	     -3.10877898	      1.09023024	      6.17704624	      0.10780979	      9.23806969	     -6.65865473	     -7.48972069	      3.96806418	      2.35475956	     -2.62875595	     29.55812955	      2.51519453	     61.93538914	    121.79670501	     99.03770693	     43.16903416	      2.72293648	     72.59758004	    124.49066042	    104.96517631
      0.21666670	     -9.20493004	     -2.23588586	      3.46648536	     -0.08590962	      1.24977877	     -0.03094110	      9.03667270	      0.41399646	      1.66314600	      5.86259193	      0.10232153	      3.97094462	    -13.19642908	     -7.48977918	      9.03897915	     -3.18160815	      1.25225438	      5.98002632	      0.10437115	      9.09312060	     -6.58974708	     -7.48977918	      4.02855650	      2.31538935	     -2.74477041	     29.12818273	      2.44624619	     62.52368802	    121.93702866	     99.12119455	     43.21265399	      2.57020124	     72.69452285	    124.46606010	    104.98705347
